# xmcd
#
# Track frame offsets:
#	150
#	14292
#	29613
#	47039
#	61274
#	80151
#	96587
#	114246
#	127634
#	148534
#	167172
#	181143
#	197004
#	213965
#
# Disc length: 3090 seconds
#
# Revision: 2
# Processed by: cddbd v1.5.2PL0 Copyright (c) Steve Scherf et al.
# Submitted via: EasyCDDAExtractor 15.3.0.1
#
DISCID=bc0c100e
DTITLE=Ana Barbara - Loca De Amar
DYEAR=2004
DGENRE=Latin
TTITLE0=Loca
TTITLE1=Enseñame A Olvidar
TTITLE2=Principio Y Fin
TTITLE3=Bailando
TTITLE4=Me Mata Tu Ausencia
TTITLE5=La Copa Y El Vino
TTITLE6=No Fue Casualidad
TTITLE7=Soledad
TTITLE8=Lo Busque
TTITLE9=Ya Me Voy
TTITLE10=Loca (Version Norteña) (Bonus Track)
TTITLE11=Loca (Version Pop) (Bonus Track)
TTITLE12=Me Mata Tu Ausencia (Version Pop) (Bonus Track)
TTITLE13=No Fue Casualidad (A Duo Con Reyli) (Bonus Track)
EXTD=YEAR: 2004
EXTT0=
EXTT1=
EXTT2=
EXTT3=
EXTT4=
EXTT5=
EXTT6=
EXTT7=
EXTT8=
EXTT9=
EXTT10=
EXTT11=
EXTT12=
EXTT13=
PLAYORDER=
